<?xml version="1.0" standalone="no"?>
<!DOCTYPE svg PUBLIC "-//W3C//DTD SVG 20010904//EN"
 "http://www.w3.org/TR/2001/REC-SVG-20010904/DTD/svg10.dtd">
<svg version="1.0" xmlns="http://www.w3.org/2000/svg"
 width="1024.000000pt" height="1024.000000pt" viewBox="0 0 1024.000000 1024.000000"
 preserveAspectRatio="xMidYMid meet">

<g transform="translate(0.000000,1024.000000) scale(0.100000,-0.100000)"
fill="#000000" stroke="none">
<path d="M0 5120 l0 -5120 5120 0 5120 0 0 5120 0 5120 -5120 0 -5120 0 0
-5120z m3198 1283 c-10 -2 -28 -2 -40 0 -13 2 -5 4 17 4 22 1 32 -1 23 -4z
m-93 -13 c-27 -12 -43 -12 -25 0 8 5 22 9 30 9 10 0 8 -3 -5 -9z m142 4 c-3
-3 -12 -4 -19 -1 -8 3 -5 6 6 6 11 1 17 -2 13 -5z m64 -27 c35 -23 99 -101 99
-120 0 -6 -13 9 -28 34 -32 49 -53 69 -97 92 -16 9 -25 16 -19 17 6 0 26 -10
45 -23z m1469 -52 l0 -75 -125 0 -125 0 0 -340 0 -340 -85 0 -85 0 0 341 1
341 -125 -1 -126 -2 0 75 0 76 335 0 335 0 0 -75z m760 0 l0 -75 -125 0 -125
0 0 -340 0 -340 -85 0 -86 0 3 340 3 340 -127 0 -128 0 0 75 0 75 335 0 335 0
0 -75z m-2535 18 c-20 -20 -46 -55 -56 -77 -10 -23 -19 -35 -19 -27 0 23 48
98 77 120 41 30 41 25 -2 -16z m138 -74 c-41 -12 -83 -62 -83 -100 0 -44 27
-89 63 -104 18 -8 25 -14 17 -15 -40 -1 -90 64 -90 115 0 53 58 115 105 114
13 -1 8 -4 -12 -10z m64 5 c-3 -3 -12 -4 -19 -1 -8 3 -5 6 6 6 11 1 17 -2 13
-5z m53 -29 c13 -14 22 -26 19 -28 -2 -1 -16 10 -31 25 -15 15 -23 28 -19 28
4 0 18 -11 31 -25z m157 -37 c-3 -7 -5 -2 -5 12 0 14 2 19 5 13 2 -7 2 -19 0
-25z m-1328 -12 c-2 -2 -24 -6 -49 -9 -30 -4 -38 -3 -25 3 19 8 83 14 74 6z
m1338 -43 c-3 -10 -5 -4 -5 12 0 17 2 24 5 18 2 -7 2 -21 0 -30z m-1484 2
c-65 -30 -137 -95 -174 -160 -16 -27 -29 -45 -29 -39 0 20 58 100 104 142 43
40 117 82 141 81 6 0 -13 -11 -42 -24z m1347 -20 c0 -8 -14 -29 -31 -47 l-31
-33 26 33 c14 19 26 40 26 48 0 8 2 14 5 14 3 0 5 -7 5 -15z m111 -82 c-27
-51 -50 -77 -86 -99 -22 -13 -19 -7 13 20 43 38 81 99 83 133 1 16 2 16 6 1 2
-9 -5 -34 -16 -55z m-434 -25 c16 -23 48 -54 72 -70 25 -15 40 -28 34 -28 -19
0 -94 61 -113 93 l-20 32 -432 5 -433 5 432 3 433 2 27 -42z m-912 22 c-27
-12 -43 -12 -25 0 8 5 22 9 30 9 10 0 8 -3 -5 -9z m-50 -18 c-6 -4 -26 -20
-47 -35 -22 -16 -48 -51 -67 -88 -17 -34 -31 -56 -31 -48 0 30 62 121 102 149
37 27 66 42 43 22z m-274 -138 c-5 -21 -9 -30 -10 -19 -1 24 10 67 15 62 3 -2
0 -22 -5 -43z m1536 35 c-11 -6 -47 -13 -80 -15 l-62 -3 64 9 c35 5 66 12 69
15 3 3 10 5 16 5 6 0 3 -5 -7 -11z m-150 -5 c-3 -3 -12 -4 -19 -1 -8 3 -5 6 6
6 11 1 17 -2 13 -5z m-1400 -576 c-1 -95 -3 -20 -3 167 0 187 2 265 3 173 2
-92 2 -245 0 -340z m140 -5 c-1 -93 -3 -17 -3 167 0 184 2 260 3 168 2 -93 2
-243 0 -335z m1746 467 c33 -26 43 -70 23 -107 -8 -15 -214 -227 -458 -470
-383 -382 -448 -443 -473 -443 -25 0 -67 38 -283 253 -139 138 -260 265 -268
280 -31 58 7 117 75 117 32 0 53 -18 253 -217 l218 -218 413 413 c365 365 416
412 443 412 17 0 43 -9 57 -20z m1957 -862 l0 -403 -65 3 -65 4 0 399 0 399
65 0 65 0 0 -402z m-1117 386 c65 -11 139 -63 169 -119 40 -72 37 -80 -28 -94
-30 -7 -56 -11 -57 -9 -38 75 -65 97 -125 105 -58 8 -107 -4 -142 -33 -24 -20
-30 -34 -30 -64 0 -53 37 -82 142 -109 123 -33 163 -50 208 -88 54 -47 70 -81
70 -152 0 -72 -9 -98 -51 -145 -50 -58 -101 -79 -200 -84 -138 -7 -240 42
-289 139 -31 59 -27 76 21 89 22 6 46 13 53 16 9 3 22 -11 35 -39 29 -60 79
-87 163 -87 93 0 137 34 138 106 0 65 -38 92 -175 124 -47 11 -103 29 -123 39
-140 72 -164 252 -46 350 63 52 161 72 267 55z m2831 -10 c44 -15 48 -15 66 1
14 13 29 16 56 12 20 -3 39 -8 41 -11 11 -10 -20 -77 -44 -96 -31 -24 -75 -26
-133 -5 -23 8 -53 15 -67 15 -13 0 -26 -7 -29 -15 -8 -20 -92 -21 -100 -1 -9
23 18 68 55 93 40 27 89 29 155 7z m-3824 -292 c-1 -262 -10 -360 -40 -442
-24 -62 -72 -136 -87 -133 -13 3 -80 -66 -74 -75 7 -11 -97 -70 -154 -89 -41
-13 -106 -17 -342 -21 l-293 -4 0 -54 c0 -94 -48 -170 -135 -217 -54 -29 -183
-31 -235 -3 -119 63 -174 187 -135 309 50 160 223 228 377 148 l61 -31 281 0
c305 0 360 7 438 53 59 34 114 97 147 166 25 54 26 62 29 276 l3 220 71 72
c40 40 75 70 80 67 4 -3 8 -112 8 -242z m-1779 117 c-19 -11 -39 -26 -45 -33
-37 -40 -49 -59 -62 -93 -7 -21 -13 -29 -14 -19 -1 47 102 166 144 166 6 0 -4
-9 -23 -21z m261 -11 c37 -26 88 -104 87 -132 -1 -17 -3 -15 -9 6 -14 46 -47
93 -87 121 -21 15 -34 27 -29 27 4 0 22 -10 38 -22z m3257 -43 c216 -118 192
-461 -37 -539 -71 -25 -186 -21 -247 8 -104 49 -165 143 -166 257 -1 111 24
174 96 237 65 57 112 72 215 69 72 -3 93 -7 139 -32z m1503 19 c57 -19 123
-74 148 -123 l19 -38 -53 -16 c-68 -22 -70 -22 -86 8 -43 81 -186 91 -252 18
-95 -104 -36 -287 99 -309 56 -9 105 10 145 54 l33 37 55 -19 c30 -11 57 -21
58 -22 2 -1 -10 -22 -26 -46 -36 -53 -94 -94 -156 -113 -25 -8 -54 -19 -64
-24 -15 -9 -15 -10 4 -11 33 0 64 -36 64 -75 0 -77 -44 -115 -133 -115 -60 0
-61 1 -71 43 l-7 28 59 -7 c47 -5 60 -3 72 11 20 24 2 48 -46 59 -21 5 -40 10
-41 11 -1 0 2 17 6 37 l9 37 -51 17 c-71 24 -148 101 -172 173 -51 154 28 335
169 385 55 19 162 20 218 0z m658 0 c70 -21 149 -98 173 -168 41 -120 12 -253
-71 -328 -54 -49 -88 -66 -156 -76 -112 -18 -217 17 -285 95 -54 61 -75 126
-69 217 9 133 83 229 208 267 43 13 144 10 200 -7z m683 -17 c89 -53 137 -139
137 -249 l0 -59 -216 3 -216 3 6 -30 c9 -44 37 -77 86 -102 67 -35 141 -26
201 24 l31 26 44 -21 c24 -12 44 -25 44 -30 0 -17 -77 -82 -120 -101 -33 -15
-66 -21 -127 -21 -72 0 -88 4 -145 33 -100 52 -148 136 -148 264 0 121 64 224
170 273 66 31 189 24 253 -13z m579 -2 c43 -31 93 -104 80 -117 -4 -4 -29 -10
-57 -13 -46 -6 -51 -5 -60 16 -33 77 -212 59 -203 -20 4 -31 48 -56 129 -71
70 -13 158 -57 183 -93 14 -19 20 -43 20 -82 0 -45 -5 -60 -30 -92 -48 -58
-85 -76 -176 -81 -88 -5 -146 11 -199 55 -27 23 -65 81 -57 87 6 6 101 36 103
33 1 -1 8 -13 14 -25 33 -63 187 -70 224 -11 15 25 0 67 -31 83 -15 7 -54 19
-87 26 -135 26 -205 84 -205 169 0 110 85 173 227 169 72 -3 86 -6 125 -33z
m-2800 -175 l3 -200 33 -32 c28 -28 39 -33 81 -33 26 0 60 6 74 14 50 26 57
61 57 265 l0 186 70 0 70 0 0 -285 0 -285 -70 0 -70 0 0 32 0 31 -22 -20 c-83
-76 -230 -71 -305 9 -45 48 -53 96 -53 314 l0 204 64 0 65 0 3 -200z m-4045
134 c-3 -3 -12 -4 -19 -1 -8 3 -5 6 6 6 11 1 17 -2 13 -5z m60 0 c-3 -3 -12
-4 -19 -1 -8 3 -5 6 6 6 11 1 17 -2 13 -5z m-120 -32 c-36 -37 -44 -82 -23
-124 16 -32 16 -32 -1 -15 -12 12 -18 33 -18 62 0 35 6 50 29 74 17 17 32 31
35 31 2 0 -7 -13 -22 -28z m163 3 c13 -14 21 -25 18 -25 -2 0 -15 11 -28 25
-13 14 -21 25 -18 25 2 0 15 -11 28 -25z m27 -57 c-3 -8 -6 -5 -6 6 -1 11 2
17 5 13 3 -3 4 -12 1 -19z m-350 -40 c-2 -13 -4 -5 -4 17 -1 22 1 32 4 23 2
-10 2 -28 0 -40z m472 -45 c-14 -52 -59 -117 -91 -134 -14 -7 -7 4 18 29 44
43 73 109 75 171 2 33 2 34 6 7 3 -16 -1 -49 -8 -73z m-406 -91 c33 -35 73
-59 117 -73 20 -6 21 -7 5 -8 -59 -2 -166 95 -180 164 -4 23 -2 21 10 -10 9
-22 30 -55 48 -73z m271 83 c-4 -9 -16 -21 -28 -27 -19 -10 -19 -9 3 16 28 30
33 32 25 11z m-159 -25 c3 -6 -1 -7 -9 -4 -18 7 -21 14 -7 14 6 0 13 -4 16
-10z m74 -26 c10 -9 -35 -3 -49 6 -11 8 -7 9 15 4 17 -4 32 -8 34 -10z m71
-104 c-8 -5 -24 -9 -35 -9 -16 1 -16 2 5 9 35 11 48 11 30 0z m1430 -305 c-13
-14 -28 -25 -34 -25 -5 0 3 13 19 30 16 16 31 28 33 25 3 -3 -5 -16 -18 -30z
m1650 -294 l0 -60 28 15 c41 21 70 17 103 -15 28 -28 29 -33 29 -121 0 -89 -1
-91 -22 -88 -22 3 -23 8 -26 88 -3 90 -13 110 -56 110 -43 0 -56 -27 -56 -117
0 -82 0 -83 -25 -83 l-25 0 0 165 0 165 25 0 c24 0 25 -3 25 -59z m1370 -38
l0 -97 48 46 c40 39 102 69 102 49 0 -3 -18 -23 -39 -46 l-39 -40 44 -68 c24
-37 44 -70 44 -72 0 -3 -11 -5 -24 -5 -19 0 -32 13 -56 53 -18 28 -34 54 -36
56 -2 2 -13 -4 -24 -14 -14 -12 -20 -31 -20 -57 0 -35 -2 -39 -22 -36 -23 3
-23 6 -26 166 l-2 162 25 0 25 0 0 -97z m960 -69 l0 -165 -22 3 c-23 3 -23 6
-26 166 l-2 162 25 0 25 0 0 -166z m800 159 c0 -2 -5 -13 -10 -23 -8 -16 -21
-19 -70 -17 -59 1 -72 11 -49 34 10 10 129 15 129 6z m-3745 -28 c0 -17 -7
-20 -48 -20 l-47 0 0 -137 0 -138 -25 0 -25 0 0 138 0 137 -50 -3 c-48 -4 -50
-3 -50 22 l0 27 123 -3 c114 -3 122 -4 122 -23z m1195 0 c0 -23 -3 -25 -50
-25 l-50 0 0 -135 c0 -128 -1 -135 -20 -135 -19 0 -20 7 -20 135 l0 135 -50 0
c-47 0 -50 2 -50 25 l0 25 120 0 120 0 0 -25z m1315 -5 c30 -28 31 -37 6 -45
-13 -4 -27 1 -40 14 -25 25 -73 27 -95 5 -34 -33 -9 -62 72 -84 59 -15 82 -41
82 -89 0 -32 -6 -44 -32 -66 -28 -24 -39 -27 -85 -23 -53 5 -103 35 -103 64 0
24 30 23 54 -1 31 -31 78 -33 106 -5 39 39 18 66 -72 90 -26 7 -54 20 -62 29
-36 40 -25 103 24 129 37 19 115 10 145 -18z m-2334 -66 c17 -8 37 -30 45 -49
26 -63 24 -65 -76 -65 -77 0 -90 -2 -90 -17 0 -45 90 -74 119 -39 12 14 51 10
51 -5 0 -17 -64 -49 -97 -49 -49 0 -81 16 -103 52 -66 108 41 229 151 172z
m278 2 c15 -8 33 -22 40 -30 20 -24 -15 -33 -49 -12 -39 22 -67 20 -95 -9 -31
-30 -32 -73 -4 -109 25 -32 77 -36 104 -6 14 16 21 17 38 8 20 -10 20 -12 -11
-39 -26 -23 -42 -29 -78 -29 -39 0 -51 5 -80 34 -29 29 -34 41 -34 81 0 57 12
80 53 105 38 24 78 25 116 6z m916 -11 c0 -14 -8 -21 -27 -23 -47 -5 -68 -45
-68 -124 0 -65 -1 -69 -21 -66 -19 3 -21 10 -22 116 -2 110 -2 112 21 112 15
0 22 -6 22 -20 0 -17 2 -17 25 6 30 30 70 30 70 -1z m180 15 c38 -15 56 -67
53 -153 -3 -66 -5 -72 -25 -75 -16 -2 -23 2 -23 13 0 15 -2 15 -22 1 -51 -36
-138 -1 -138 54 0 12 11 32 25 45 20 21 34 25 80 25 59 0 71 13 39 44 -19 20
-53 20 -80 2 -16 -11 -23 -12 -37 -1 -16 11 -16 13 1 27 32 29 81 36 127 18z
m293 -10 c34 -21 43 -50 15 -50 -10 0 -27 7 -37 15 -46 35 -116 -4 -116 -65 0
-64 84 -105 124 -61 10 11 25 17 37 14 27 -7 24 -17 -13 -48 -28 -24 -39 -27
-82 -22 -68 6 -106 47 -106 113 0 56 12 79 53 104 41 25 83 25 125 0z m932 5
c42 -22 60 -53 60 -107 0 -69 -37 -109 -107 -115 -47 -5 -54 -3 -87 28 -50 45
-58 99 -24 149 40 58 99 75 158 45z m689 1 c44 -23 56 -43 34 -54 -13 -8 -24
-5 -42 9 -13 10 -34 19 -48 19 -34 0 -73 -42 -73 -80 0 -64 84 -105 124 -61
15 17 56 19 56 3 0 -11 -43 -52 -55 -52 -6 0 -16 -5 -23 -12 -9 -9 -7 -14 6
-24 13 -10 15 -18 7 -41 -9 -24 -16 -28 -49 -28 -23 0 -41 5 -43 13 -3 8 6 12
26 12 21 0 31 5 31 15 0 8 -9 15 -20 15 -22 0 -26 10 -9 27 8 8 5 13 -12 18
-37 11 -68 45 -79 86 -27 97 79 181 169 135z m271 -1 c16 -9 36 -29 45 -45 43
-84 -13 -180 -105 -180 -67 0 -120 53 -120 120 0 90 98 147 180 105z m307 -17
c13 -13 26 -41 30 -61 l6 -37 -92 0 c-74 0 -91 -3 -91 -15 0 -45 82 -72 126
-41 14 10 25 11 35 5 11 -8 9 -14 -14 -34 -84 -74 -223 21 -187 129 11 33 42
68 70 79 30 12 93 -1 117 -25z m217 21 c14 -7 28 -19 31 -27 8 -22 -17 -34
-36 -16 -17 16 -57 18 -78 5 -24 -15 -5 -38 43 -50 84 -21 112 -79 59 -121
-38 -30 -118 -24 -146 11 -18 22 -18 23 0 30 10 4 25 1 35 -8 10 -9 31 -13 55
-11 29 2 38 7 38 22 0 22 -13 30 -75 48 -34 10 -47 20 -54 41 -22 61 57 108
128 76z m-1194 -75 c0 -89 10 -114 47 -114 49 0 63 24 63 112 0 77 0 78 25 78
l25 0 0 -115 0 -115 -26 0 c-19 0 -25 4 -20 15 7 19 -3 19 -28 0 -29 -22 -71
-18 -103 9 -26 23 -28 30 -31 115 l-4 91 26 0 c26 0 26 -1 26 -76z"/>
<path d="M3505 5790 c-3 -6 1 -7 9 -4 18 7 21 14 7 14 -6 0 -13 -4 -16 -10z"/>
<path d="M3571 5797 c2 -1 13 -9 24 -17 19 -14 19 -14 6 3 -7 9 -18 17 -24 17
-6 0 -8 -1 -6 -3z"/>
<path d="M3449 5733 l-34 -38 38 34 c20 19 37 36 37 38 0 8 -8 0 -41 -34z"/>
<path d="M3525 5608 l-80 -83 83 80 c45 44 82 81 82 82 0 8 -11 -3 -85 -79z"/>
<path d="M3364 5648 l-29 -33 33 29 c17 17 32 31 32 33 0 8 -8 1 -36 -29z"/>
<path d="M3294 5578 l-29 -33 33 29 c17 17 32 31 32 33 0 8 -8 1 -36 -29z"/>
<path d="M3214 5498 l-29 -33 33 29 c30 28 37 36 29 36 -2 0 -16 -15 -33 -32z"/>
<path d="M3355 5438 l-70 -73 73 70 c67 64 77 75 69 75 -1 0 -34 -33 -72 -72z"/>
<path d="M3135 5418 l-40 -43 43 40 c39 36 47 45 39 45 -2 0 -21 -19 -42 -42z"/>
<path d="M2174 5405 c-17 -13 -16 -13 14 -2 28 10 38 9 65 -6 l32 -17 -24 20
c-28 24 -60 26 -87 5z"/>
<path d="M2290 5366 c0 -2 8 -10 18 -17 15 -13 16 -12 3 4 -13 16 -21 21 -21
13z"/>
<path d="M3059 5343 l-24 -28 28 24 c25 23 32 31 24 31 -2 0 -14 -12 -28 -27z"/>
<path d="M2370 5095 c118 -118 217 -215 220 -215 3 0 -92 97 -210 215 -118
118 -217 215 -220 215 -3 0 92 -97 210 -215z"/>
<path d="M2425 5230 c33 -33 62 -60 64 -60 3 0 -21 27 -54 60 -33 33 -62 60
-64 60 -3 0 21 -27 54 -60z"/>
<path d="M2979 5263 l-24 -28 28 24 c25 23 32 31 24 31 -2 0 -14 -12 -28 -27z"/>
<path d="M3165 5248 l-40 -43 43 40 c23 21 42 40 42 42 0 8 -9 0 -45 -39z"/>
<path d="M2899 5183 l-24 -28 28 24 c25 23 32 31 24 31 -2 0 -14 -12 -28 -27z"/>
<path d="M2960 5043 l-155 -158 158 155 c86 85 157 156 157 157 0 8 -16 -8
-160 -154z"/>
<path d="M2530 5125 c19 -19 36 -35 39 -35 3 0 -10 16 -29 35 -19 19 -36 35
-39 35 -3 0 10 -16 29 -35z"/>
<path d="M2814 5098 l-19 -23 23 19 c21 18 27 26 19 26 -2 0 -12 -10 -23 -22z"/>
<path d="M2610 5045 c19 -19 36 -35 39 -35 3 0 -10 16 -29 35 -19 19 -36 35
-39 35 -3 0 10 -16 29 -35z"/>
<path d="M2759 4843 l-34 -38 38 34 c34 33 42 41 34 41 -2 0 -19 -17 -38 -37z"/>
<path d="M2632 4835 c21 -22 39 -37 41 -34 2 2 -15 19 -37 38 l-41 35 37 -39z"/>
<path d="M3394 5208 l-29 -33 33 29 c30 28 37 36 29 36 -2 0 -16 -15 -33 -32z"/>
<path d="M3424 5085 c0 -71 1 -99 3 -62 2 37 2 96 0 130 -2 34 -3 4 -3 -68z"/>
<path d="M3327 5142 l-27 -29 3 -204 2 -204 3 204 2 205 27 28 c15 15 24 28
22 28 -3 0 -17 -13 -32 -28z"/>
<path d="M3424 4825 c0 -71 1 -99 3 -62 2 37 2 96 0 130 -2 34 -3 4 -3 -68z"/>
<path d="M3291 4674 c0 -11 3 -14 6 -6 3 7 2 16 -1 19 -3 4 -6 -2 -5 -13z"/>
<path d="M3411 4664 c0 -11 3 -14 6 -6 3 7 2 16 -1 19 -3 4 -6 -2 -5 -13z"/>
<path d="M3401 4624 c0 -11 3 -14 6 -6 3 7 2 16 -1 19 -3 4 -6 -2 -5 -13z"/>
<path d="M3348 4504 c-15 -24 -25 -44 -23 -44 7 0 58 80 54 84 -2 2 -16 -16
-31 -40z"/>
<path d="M3189 4503 l-34 -38 38 34 c34 33 42 41 34 41 -2 0 -19 -17 -38 -37z"/>
<path d="M3105 4444 c-22 -13 -35 -24 -30 -24 12 0 75 38 75 45 0 6 2 7 -45
-21z"/>
<path d="M2178 4453 c18 -2 45 -2 60 0 15 2 0 4 -33 4 -33 0 -45 -2 -27 -4z"/>
<path d="M2299 4435 c18 -8 36 -15 40 -15 13 1 -45 29 -59 29 -8 0 0 -6 19
-14z"/>
<path d="M3020 4410 c-21 -7 -21 -8 -5 -9 11 0 27 4 35 9 18 11 5 11 -30 0z"/>
<path d="M2019 4383 l-24 -28 28 24 c25 23 32 31 24 31 -2 0 -14 -12 -28 -27z"/>
<path d="M2583 4393 c76 -2 198 -2 270 0 73 1 11 3 -138 3 -148 0 -208 -2
-132 -3z"/>
<path d="M3210 4359 c-22 -18 -22 -19 -3 -10 12 6 25 16 28 21 9 15 3 12 -25
-11z"/>
<path d="M2188 4343 c6 -2 18 -2 25 0 6 3 1 5 -13 5 -14 0 -19 -2 -12 -5z"/>
<path d="M2129 4323 c-13 -17 -13 -17 6 -3 11 8 22 16 24 17 2 2 0 3 -6 3 -6
0 -17 -8 -24 -17z"/>
<path d="M2153 4314 c-18 -9 -39 -31 -48 -51 -33 -69 18 -153 92 -153 68 0
112 42 113 105 0 49 -22 83 -66 101 -42 18 -51 17 -91 -2z"/>
<path d="M2285 4310 c10 -11 20 -20 23 -20 3 0 -3 9 -13 20 -10 11 -20 20 -23
20 -3 0 3 -9 13 -20z"/>
<path d="M3003 4283 c9 -2 23 -2 30 0 6 3 -1 5 -18 5 -16 0 -22 -2 -12 -5z"/>
<path d="M1961 4264 c0 -11 3 -14 6 -6 3 7 2 16 -1 19 -3 4 -6 -2 -5 -13z"/>
<path d="M2072 4220 c0 -19 2 -27 5 -17 2 9 2 25 0 35 -3 9 -5 1 -5 -18z"/>
<path d="M2443 4210 c0 -25 2 -35 4 -22 2 12 2 32 0 45 -2 12 -4 2 -4 -23z"/>
<path d="M2331 4214 c0 -11 3 -14 6 -6 3 7 2 16 -1 19 -3 4 -6 -2 -5 -13z"/>
<path d="M1961 4164 c0 -11 3 -14 6 -6 3 7 2 16 -1 19 -3 4 -6 -2 -5 -13z"/>
<path d="M2420 4111 c0 -6 -19 -33 -42 -59 -42 -47 -42 -47 -4 -12 41 38 61
68 52 78 -3 3 -6 0 -6 -7z"/>
<path d="M2010 4056 c0 -2 8 -10 18 -17 15 -13 16 -12 3 4 -13 16 -21 21 -21
13z"/>
<path d="M4986 5000 c-100 -30 -147 -168 -93 -270 26 -50 90 -90 144 -90 71 0
142 56 164 130 26 85 -14 179 -91 218 -46 23 -76 26 -124 12z"/>
<path d="M7175 4991 c-48 -22 -69 -44 -90 -94 -45 -107 21 -236 129 -252 57
-9 104 7 144 48 38 40 52 75 52 133 0 77 -42 139 -113 169 -47 19 -73 19 -122
-4z"/>
<path d="M7840 5009 c-45 -19 -100 -84 -100 -119 0 -6 53 -10 155 -10 124 0
155 3 155 14 0 19 -41 76 -71 99 -31 23 -103 31 -139 16z"/>
<path d="M4412 4024 c-42 -29 -28 -44 43 -44 50 0 65 3 65 14 0 19 -38 46 -65
46 -11 0 -31 -7 -43 -16z"/>
<path d="M5792 3938 c-36 -36 15 -80 66 -56 18 9 28 23 30 41 3 26 1 27 -40
27 -24 0 -49 -5 -56 -12z"/>
<path d="M7006 4019 c-56 -44 -22 -139 49 -139 67 0 99 86 50 135 -30 30 -64
32 -99 4z"/>
<path d="M7960 4020 c-62 -62 -5 -163 77 -134 36 12 58 52 49 87 -15 62 -85
88 -126 47z"/>
<path d="M8250 4020 c-33 -33 -24 -40 51 -40 73 0 75 2 41 43 -20 23 -67 22
-92 -3z"/>
</g>
</svg>
